<mxfile host="app.diagrams.net" modified="2020-12-08T20:54:11.963Z" agent="5.0 (Windows NT 10.0; Win64; x64) AppleWebKit/537.36 (KHTML, like Gecko) Chrome/86.0.4240.198 Safari/537.36" etag="Ss-pijvSGxLOZ1-IGSSf" version="13.11.0" type="github">
  <diagram id="MQba8nFTxWaPr--uBd6y" name="Page-1">
    <mxGraphModel dx="1422" dy="762" grid="1" gridSize="10" guides="1" tooltips="1" connect="1" arrows="1" fold="1" page="1" pageScale="1" pageWidth="827" pageHeight="1169" math="0" shadow="0">
      <root>
        <mxCell id="0" />
        <mxCell id="1" parent="0" />
        <mxCell id="QjOp7cX9x7-HtaPeUy0p-1" value="Portainer" style="rounded=0;whiteSpace=wrap;html=1;" vertex="1" parent="1">
          <mxGeometry x="140" y="250" width="120" height="60" as="geometry" />
        </mxCell>
        <mxCell id="QjOp7cX9x7-HtaPeUy0p-2" value="Jenkins" style="rounded=0;whiteSpace=wrap;html=1;" vertex="1" parent="1">
          <mxGeometry x="294" y="250" width="120" height="60" as="geometry" />
        </mxCell>
        <mxCell id="QjOp7cX9x7-HtaPeUy0p-3" value="DataArchiver" style="rounded=0;whiteSpace=wrap;html=1;" vertex="1" parent="1">
          <mxGeometry x="294" y="350" width="120" height="60" as="geometry" />
        </mxCell>
        <mxCell id="QjOp7cX9x7-HtaPeUy0p-4" value="DjangoWebserver" style="rounded=0;whiteSpace=wrap;html=1;" vertex="1" parent="1">
          <mxGeometry x="460" y="250" width="120" height="60" as="geometry" />
        </mxCell>
        <mxCell id="QjOp7cX9x7-HtaPeUy0p-5" value="Postgres" style="rounded=0;whiteSpace=wrap;html=1;" vertex="1" parent="1">
          <mxGeometry x="460" y="350" width="120" height="60" as="geometry" />
        </mxCell>
        <mxCell id="QjOp7cX9x7-HtaPeUy0p-6" value="QGIS Server" style="rounded=0;whiteSpace=wrap;html=1;" vertex="1" parent="1">
          <mxGeometry x="620" y="250" width="120" height="60" as="geometry" />
        </mxCell>
      </root>
    </mxGraphModel>
  </diagram>
</mxfile>
